<svg version="1.1" id="Layer_1" xmlns="http://www.w3.org/2000/svg" xmlns:xlink="http://www.w3.org/1999/xlink" x="0px" y="0px"
	 width="100%" height="100%" viewBox="0 0 393 90" enable-background="new 0 0 393 90" xml:space="preserve">
<g>
	<path fill="#006595" d="M3.04,20.73c-2.94-4.54-0.93-8.46,4.48-8.71l74.49-3.38c5.41-0.25,7.8,3.49,5.31,8.3L53.34,82.65
		c-2.49,4.81-6.93,5.03-9.87,0.48L3.04,20.73z"/>
</g>
<g>
	<path fill="#B47020" d="M244.38,57.61h3.58c0.64,0,3.05,0.01,3.05,2.2c0,1.07-0.82,2.83-3.71,2.83c-1.01,0-1.21-0.04-1.53-0.12
		L245,65.31c-0.17,0.64-0.17,0.64-0.17,0.88c0,0.49,0.23,0.52,0.98,0.62v0.23h-3.54v-0.23c0.74-0.12,0.92-0.14,1.19-1.07l1.7-6.14
		c0.1-0.33,0.25-0.91,0.25-1.11c0-0.53-0.42-0.58-1.03-0.65V57.61z M245.9,62.03c0.29,0.04,0.46,0.07,0.65,0.07
		c1.05,0,2.98,0,2.98-2.38c0-1.07-0.43-1.67-2.02-1.67c-0.43,0-0.52,0.23-0.58,0.4L245.9,62.03z"/>
	<path fill="#B47020" d="M255.84,62.81c0,1.78-1.98,4.39-4.19,4.39c-1.53,0-2.18-0.88-2.18-2.08c0-2.12,2.14-4.45,4.25-4.45
		C255.39,60.67,255.84,61.86,255.84,62.81z M250.68,65.55c0,0.82,0.43,1.34,1.15,1.34c1.65,0,2.79-2.99,2.79-4.53
		c0-0.75-0.32-1.39-1.01-1.39C251.99,60.98,250.68,63.85,250.68,65.55z"/>
	<path fill="#B47020" d="M256.18,64.93c0.1,0.64,0.33,1.97,1.5,1.97c0.81,0,1.04-0.69,1.04-1.17c0-0.95-1.72-2.34-1.72-3.45
		c0-0.45,0.2-1.6,1.73-1.6c0.65,0,0.94,0.24,1.37,0.24c0.25,0,0.33-0.14,0.4-0.26h0.2l-0.29,2.01h-0.23
		c-0.07-0.82-0.42-1.66-1.36-1.66c-0.32,0-0.78,0.13-0.78,0.84c0,0.91,1.76,2.2,1.76,3.42c0,1.57-1.34,1.93-2.15,1.93
		c-0.43,0-1.01-0.27-1.43-0.27c-0.2,0-0.26,0.14-0.35,0.3h-0.23l0.29-2.3H256.18z"/>
	<path fill="#B47020" d="M260.93,64.93c0.1,0.64,0.33,1.97,1.5,1.97c0.81,0,1.04-0.69,1.04-1.17c0-0.95-1.72-2.34-1.72-3.45
		c0-0.45,0.2-1.6,1.73-1.6c0.65,0,0.94,0.24,1.37,0.24c0.25,0,0.33-0.14,0.4-0.26h0.2l-0.29,2.01h-0.23
		c-0.07-0.82-0.42-1.66-1.36-1.66c-0.32,0-0.78,0.13-0.78,0.84c0,0.91,1.76,2.2,1.76,3.42c0,1.57-1.34,1.93-2.15,1.93
		c-0.43,0-1.01-0.27-1.43-0.27c-0.2,0-0.26,0.14-0.35,0.3h-0.23l0.29-2.3H260.93z"/>
	<path fill="#B47020" d="M268.33,65.55c-0.56,0.85-1.2,1.65-2.01,1.65c-0.68,0-0.68-0.63-0.68-0.89c0-0.68,1.14-4.26,1.14-4.67
		c0-0.3-0.12-0.37-0.91-0.37v-0.23c0.55-0.03,1.75-0.26,2.31-0.36l0.04,0.03l-1.27,4.65c-0.06,0.2-0.23,0.78-0.23,0.95
		c0,0.1,0.1,0.22,0.23,0.22c0.17,0,0.59-0.29,1.18-1.13L268.33,65.55z M268.04,59.13c-0.36,0-0.69-0.25-0.69-0.75
		c0-0.51,0.33-0.78,0.68-0.78c0.48,0,0.72,0.48,0.72,0.79C268.75,58.68,268.52,59.13,268.04,59.13z"/>
	<path fill="#B47020" d="M269.67,57.51c0.72-0.09,1.46-0.19,2.21-0.33l0.07,0.07c-0.32,1.19-0.98,3.87-1.47,5.5l0.03,0.02
		c0.48-0.75,1.39-2.09,2.69-2.09c1.01,0,1.72,0.69,1.72,1.75c0,2.28-2.41,4.78-4.62,4.78c-0.77,0-1.88-0.45-1.88-0.76v-0.06
		l1.96-7.24c0.1-0.41,0.23-0.77,0.23-0.97c0-0.33-0.1-0.41-0.94-0.42V57.51z M272.63,61.38c-1.59,0-2.97,3.49-2.97,5.01
		c0,0.1,0,0.48,0.68,0.48c1.98,0,3.35-3.05,3.35-4.26C273.69,62.16,273.54,61.38,272.63,61.38z"/>
	<path fill="#B47020" d="M277.83,65.55c-0.56,0.85-1.2,1.65-2.01,1.65c-0.68,0-0.68-0.63-0.68-0.89c0-0.68,1.14-4.26,1.14-4.67
		c0-0.3-0.12-0.37-0.91-0.37v-0.23c0.55-0.03,1.75-0.26,2.31-0.36l0.04,0.03l-1.27,4.65c-0.06,0.2-0.23,0.78-0.23,0.95
		c0,0.1,0.1,0.22,0.23,0.22c0.17,0,0.59-0.29,1.18-1.13L277.83,65.55z M277.54,59.13c-0.36,0-0.69-0.25-0.69-0.75
		c0-0.51,0.33-0.78,0.68-0.78c0.48,0,0.72,0.48,0.72,0.79C278.25,58.68,278.02,59.13,277.54,59.13z"/>
	<path fill="#B47020" d="M281.07,65.39c-0.74,1.11-1.3,1.8-2.2,1.8c-0.63,0-0.69-0.49-0.69-0.89c0-0.3,2.09-7.84,2.09-8.15
		c0-0.38-0.61-0.38-0.98-0.36v-0.23c0.75-0.09,1.5-0.22,2.25-0.39l0.07,0.07l-2.18,8.36c-0.03,0.13-0.14,0.52-0.14,0.68
		c0,0.09,0,0.29,0.22,0.29c0.36,0,0.66-0.4,1.37-1.31L281.07,65.39z"/>
	<path fill="#B47020" d="M284.13,65.55c-0.56,0.85-1.2,1.65-2.01,1.65c-0.68,0-0.68-0.63-0.68-0.89c0-0.68,1.14-4.26,1.14-4.67
		c0-0.3-0.12-0.37-0.91-0.37v-0.23c0.55-0.03,1.75-0.26,2.31-0.36l0.04,0.03l-1.27,4.65c-0.06,0.2-0.23,0.78-0.23,0.95
		c0,0.1,0.1,0.22,0.23,0.22c0.17,0,0.59-0.29,1.18-1.13L284.13,65.55z M283.84,59.13c-0.36,0-0.69-0.25-0.69-0.75
		c0-0.51,0.33-0.78,0.68-0.78c0.48,0,0.72,0.48,0.72,0.79C284.55,58.68,284.32,59.13,283.84,59.13z"/>
	<path fill="#B47020" d="M288.09,61.32h-1.21l-1.27,4.81c-0.01,0.04-0.01,0.07-0.01,0.12c0,0.13,0.07,0.25,0.23,0.25
		c0.29,0,0.79-0.68,1.16-1.14l0.19,0.1c-0.74,1.11-1.3,1.75-2.05,1.75c-0.29,0-0.69-0.14-0.69-0.58c0-0.22,0.27-1.1,0.33-1.33
		l1.04-3.97h-1.07c-0.01-0.09-0.01-0.16,0.03-0.23c0.09-0.13,0.49-0.23,0.74-0.36c0.48-0.25,1.17-0.9,1.57-1.4
		c0.06-0.07,0.12-0.2,0.25-0.17c0.1-0.03,0.13,0.1,0.1,0.22l-0.4,1.49h1.16L288.09,61.32z"/>
	<path fill="#B47020" d="M287.25,61.02c0.69-0.11,1.82-0.35,2.08-0.35c0.19-0.01,1.04,2.57,1.23,3.65l0.29,1.67
		c0.62-1.01,1.76-2.96,1.76-3.73c0-0.59-0.78-0.43-0.78-1.1c0-0.2,0.16-0.51,0.54-0.51c0.53,0,0.82,0.37,0.82,0.89
		c0,1.72-4.04,8.45-5.76,8.45c-0.12,0-0.74-0.04-0.74-0.65c0-0.3,0.25-0.55,0.55-0.55c0.43,0,0.62,0.41,0.88,0.41
		c0.23,0,0.42-0.13,0.91-0.71c0.36-0.42,0.97-1.13,0.97-1.52c0-0.55-0.61-3.08-0.85-3.86c-0.39-1.31-0.58-1.94-1.4-1.94
		c-0.22,0-0.32,0.01-0.49,0.06V61.02z"/>
	<path fill="#B47020" d="M292.17,66.42c0-0.46,0.36-0.82,0.79-0.82c0.43,0,0.81,0.38,0.81,0.82c0,0.54-0.51,0.78-0.81,0.78
		C292.67,67.2,292.17,66.97,292.17,66.42z"/>
	<path fill="#B47020" d="M300.25,57.61h3.58c0.64,0,3.05,0.01,3.05,2.2c0,1.07-0.82,2.83-3.71,2.83c-1.01,0-1.21-0.04-1.53-0.12
		l-0.77,2.79c-0.17,0.64-0.17,0.64-0.17,0.88c0,0.49,0.23,0.52,0.98,0.62v0.23h-3.54v-0.23c0.74-0.12,0.92-0.14,1.18-1.07l1.7-6.14
		c0.1-0.33,0.25-0.91,0.25-1.11c0-0.53-0.42-0.58-1.03-0.65V57.61z M301.76,62.03c0.29,0.04,0.46,0.07,0.65,0.07
		c1.05,0,2.98,0,2.98-2.38c0-1.07-0.43-1.67-2.02-1.67c-0.43,0-0.52,0.23-0.58,0.4L301.76,62.03z"/>
	<path fill="#B47020" d="M306.46,67.04l1.17-4.22c0.14-0.53,0.23-1.03,0.23-1.15c0-0.2-0.07-0.43-0.52-0.43
		c-0.16,0-0.32,0.04-0.48,0.07v-0.25c0.74-0.1,1.59-0.29,2.24-0.39l0.04,0.03l-0.71,2.88l0.03,0.03l0.12-0.29
		c0.48-0.95,1.58-2.64,2.48-2.64c0.33,0,0.69,0.22,0.69,0.71c0,0.75-0.52,0.75-0.68,0.75c-0.62,0-0.4-0.52-0.75-0.52
		c-0.45,0-1.31,1.6-1.43,1.82c-0.55,1.04-0.75,1.69-1.34,3.61H306.46z"/>
	<path fill="#B47020" d="M316.67,62.81c0,1.78-1.98,4.39-4.19,4.39c-1.53,0-2.18-0.88-2.18-2.08c0-2.12,2.14-4.45,4.25-4.45
		C316.22,60.67,316.67,61.86,316.67,62.81z M311.51,65.55c0,0.82,0.43,1.34,1.16,1.34c1.64,0,2.79-2.99,2.79-4.53
		c0-0.75-0.32-1.39-1.01-1.39C312.83,60.98,311.51,63.85,311.51,65.55z"/>
	<path fill="#B47020" d="M326.43,65.52l-0.07,0.1c-0.52,0.74-1.24,1.55-2.05,1.55c-0.61,0-0.61-0.51-0.61-0.71
		c0-0.39,1.13-4.42,1.13-4.71c0-0.22-0.13-0.33-0.3-0.33c-0.59,0-1.63,1.27-2.08,1.98c-0.69,1.1-0.94,2.01-1.36,3.64h-1.08
		c0.38-1.4,1.37-4.96,1.37-5.23c0-0.39-0.19-0.39-0.32-0.39c-0.65,0-1.75,1.46-2.14,2.04c-0.58,0.87-0.87,1.82-1.4,3.58h-1.08
		c0.23-0.95,1.42-5.03,1.42-5.34c0-0.32-0.22-0.35-0.92-0.35v-0.23c0.78-0.14,1.54-0.29,2.31-0.45l0.04,0.03l-0.81,2.89l0.03,0.03
		c0.43-0.71,1.92-2.94,3.13-2.94c0.55,0,0.85,0.33,0.85,0.94c0,0.2-0.33,1.4-0.53,1.98l0.03,0.03c1.01-1.67,2.18-2.94,3.13-2.94
		c0.52,0,0.85,0.39,0.85,0.97c0,0.49-1.17,4.36-1.17,4.56c0,0.25,0.04,0.29,0.22,0.29c0.27,0,0.65-0.46,1.2-1.14L326.43,65.52z"/>
	<path fill="#B47020" d="M329.22,65.55c-0.56,0.85-1.2,1.65-2.01,1.65c-0.68,0-0.68-0.63-0.68-0.89c0-0.68,1.14-4.26,1.14-4.67
		c0-0.3-0.12-0.37-0.91-0.37v-0.23c0.55-0.03,1.75-0.26,2.31-0.36l0.04,0.03l-1.27,4.65c-0.06,0.2-0.23,0.78-0.23,0.95
		c0,0.1,0.1,0.22,0.23,0.22c0.17,0,0.59-0.29,1.18-1.13L329.22,65.55z M328.93,59.13c-0.36,0-0.69-0.25-0.69-0.75
		c0-0.51,0.33-0.78,0.68-0.78c0.48,0,0.72,0.48,0.72,0.79C329.64,58.68,329.41,59.13,328.93,59.13z"/>
	<path fill="#B47020" d="M329.73,64.93c0.1,0.64,0.33,1.97,1.5,1.97c0.81,0,1.04-0.69,1.04-1.17c0-0.95-1.72-2.34-1.72-3.45
		c0-0.45,0.2-1.6,1.73-1.6c0.65,0,0.94,0.24,1.37,0.24c0.25,0,0.33-0.14,0.41-0.26h0.2l-0.29,2.01h-0.23
		c-0.07-0.82-0.42-1.66-1.36-1.66c-0.32,0-0.78,0.13-0.78,0.84c0,0.91,1.76,2.2,1.76,3.42c0,1.57-1.34,1.93-2.15,1.93
		c-0.43,0-1.01-0.27-1.43-0.27c-0.2,0-0.26,0.14-0.35,0.3h-0.23l0.29-2.3H329.73z"/>
	<path fill="#B47020" d="M339.07,65.64c-0.16,0.23-1.47,1.56-2.92,1.56c-1.52,0-1.98-1.12-1.98-2.04c0-2.07,2.28-4.49,4.32-4.49
		c0.74,0,1.18,0.35,1.18,0.98c0,1.14-1.36,2.31-3.7,2.64l-0.4,0.06c-0.07,0.3-0.14,0.59-0.14,0.88c0,0.98,0.75,1.31,1.36,1.31
		c0.78,0,1.39-0.49,2.11-1.08L339.07,65.64z M335.68,64.04c2.98-0.61,3.05-2.34,3.05-2.46c0-0.3-0.14-0.58-0.5-0.58
		c-0.78,0-1.76,1.11-2.3,2.4L335.68,64.04z"/>
	<path fill="#B47020" d="M339.45,66.42c0-0.46,0.36-0.82,0.8-0.82c0.43,0,0.81,0.38,0.81,0.82c0,0.54-0.51,0.78-0.81,0.78
		C339.94,67.2,339.45,66.97,339.45,66.42z"/>
	<path fill="#B47020" d="M347.52,57.61h3.58c0.63,0,3.05,0.01,3.05,2.2c0,1.07-0.82,2.83-3.71,2.83c-1.01,0-1.21-0.04-1.53-0.12
		l-0.77,2.79c-0.17,0.64-0.17,0.64-0.17,0.88c0,0.49,0.23,0.52,0.98,0.62v0.23h-3.54v-0.23c0.74-0.12,0.92-0.14,1.18-1.07l1.7-6.14
		c0.1-0.33,0.25-0.91,0.25-1.11c0-0.53-0.42-0.58-1.03-0.65V57.61z M349.04,62.03c0.29,0.04,0.46,0.07,0.65,0.07
		c1.05,0,2.98,0,2.98-2.38c0-1.07-0.43-1.67-2.02-1.67c-0.43,0-0.52,0.23-0.58,0.4L349.04,62.03z"/>
	<path fill="#B47020" d="M358.98,62.81c0,1.78-1.98,4.39-4.19,4.39c-1.53,0-2.18-0.88-2.18-2.08c0-2.12,2.14-4.45,4.25-4.45
		C358.53,60.67,358.98,61.86,358.98,62.81z M353.82,65.55c0,0.82,0.43,1.34,1.16,1.34c1.65,0,2.79-2.99,2.79-4.53
		c0-0.75-0.32-1.39-1.01-1.39C355.13,60.98,353.82,63.85,353.82,65.55z"/>
	<path fill="#B47020" d="M362.78,61.32h-1.21l-1.27,4.81c-0.01,0.04-0.01,0.07-0.01,0.12c0,0.13,0.07,0.25,0.23,0.25
		c0.29,0,0.79-0.68,1.16-1.14l0.19,0.1c-0.74,1.11-1.3,1.75-2.05,1.75c-0.29,0-0.69-0.14-0.69-0.58c0-0.22,0.27-1.1,0.33-1.33
		l1.04-3.97h-1.07c-0.01-0.09-0.01-0.16,0.03-0.23c0.09-0.13,0.49-0.23,0.74-0.36c0.47-0.25,1.17-0.9,1.57-1.4
		c0.06-0.07,0.12-0.2,0.25-0.17c0.1-0.03,0.13,0.1,0.1,0.22l-0.4,1.49h1.15L362.78,61.32z"/>
	<path fill="#B47020" d="M367.06,65.64c-0.16,0.23-1.47,1.56-2.92,1.56c-1.52,0-1.98-1.12-1.98-2.04c0-2.07,2.28-4.49,4.32-4.49
		c0.74,0,1.18,0.35,1.18,0.98c0,1.14-1.36,2.31-3.7,2.64l-0.4,0.06c-0.07,0.3-0.14,0.59-0.14,0.88c0,0.98,0.75,1.31,1.36,1.31
		c0.78,0,1.39-0.49,2.11-1.08L367.06,65.64z M363.67,64.04c2.97-0.61,3.05-2.34,3.05-2.46c0-0.3-0.14-0.58-0.5-0.58
		c-0.78,0-1.76,1.11-2.3,2.4L363.67,64.04z"/>
	<path fill="#B47020" d="M374.11,65.54c-0.72,0.97-1.23,1.63-2.01,1.63c-0.66,0-0.69-0.43-0.69-0.85c0-0.35,1.07-3.87,1.07-4.45
		c0-0.26-0.09-0.46-0.36-0.46c-0.69,0-1.6,1.24-2.12,2.05c-0.66,1-0.85,1.62-1.44,3.58h-1.08c0.45-1.63,1.42-5.01,1.42-5.32
		c0-0.22-0.14-0.38-0.92-0.38v-0.23c0.78-0.14,1.56-0.29,2.34-0.45l0.04,0.03l-0.92,3.02l0.03,0.03c0.68-1.07,2.01-3.08,3.21-3.08
		c0.67,0,1,0.35,1,0.95c0,0.62-1.16,4.19-1.16,4.62c0,0.22,0.2,0.25,0.23,0.25c0.29,0,0.65-0.46,1.18-1.14L374.11,65.54z"/>
	<path fill="#B47020" d="M377.82,61.32h-1.21l-1.27,4.81c-0.01,0.04-0.01,0.07-0.01,0.12c0,0.13,0.07,0.25,0.23,0.25
		c0.29,0,0.79-0.68,1.16-1.14l0.19,0.1c-0.74,1.11-1.3,1.75-2.05,1.75c-0.29,0-0.69-0.14-0.69-0.58c0-0.22,0.27-1.1,0.33-1.33
		l1.04-3.97h-1.07c-0.01-0.09-0.01-0.16,0.03-0.23c0.09-0.13,0.49-0.23,0.74-0.36c0.48-0.25,1.17-0.9,1.57-1.4
		c0.06-0.07,0.12-0.2,0.25-0.17c0.1-0.03,0.13,0.1,0.1,0.22l-0.4,1.49h1.16L377.82,61.32z"/>
	<path fill="#B47020" d="M380.16,65.55c-0.56,0.85-1.2,1.65-2.01,1.65c-0.68,0-0.68-0.63-0.68-0.89c0-0.68,1.14-4.26,1.14-4.67
		c0-0.3-0.12-0.37-0.91-0.37v-0.23c0.55-0.03,1.75-0.26,2.31-0.36l0.04,0.03l-1.27,4.65c-0.06,0.2-0.23,0.78-0.23,0.95
		c0,0.1,0.1,0.22,0.23,0.22c0.17,0,0.59-0.29,1.18-1.13L380.16,65.55z M379.87,59.13c-0.36,0-0.69-0.25-0.69-0.75
		c0-0.51,0.33-0.78,0.68-0.78c0.48,0,0.72,0.48,0.72,0.79C380.58,58.68,380.35,59.13,379.87,59.13z"/>
	<path fill="#B47020" d="M386.79,65.6c-0.87,1.07-1.36,1.59-1.98,1.59c-0.61,0-0.61-0.38-0.61-0.62c0-0.33,0.07-0.65,0.3-1.53
		L384.48,65c-1.2,1.76-1.96,2.19-2.83,2.19c-1.45,0-1.49-1.28-1.49-1.7c0-2.12,2.21-4.82,4.13-4.82c0.62,0,1.1,0.37,1.14,0.78h0.03
		l0.15-0.63l0.04-0.04l0.88-0.1l0.1,0.04c-0.04,0.17-1.37,5.1-1.37,5.54c0,0.1,0.09,0.19,0.2,0.19c0.22,0,0.51-0.36,1.16-1
		L386.79,65.6z M382.24,66.49c1.53,0,2.95-3.12,2.95-4.54c0-0.69-0.4-0.97-0.82-0.97c-1.69,0-2.99,3.18-2.99,4.48
		C381.38,66.23,381.85,66.49,382.24,66.49z"/>
	<path fill="#B47020" d="M389.75,65.39c-0.74,1.11-1.3,1.8-2.2,1.8c-0.64,0-0.69-0.49-0.69-0.89c0-0.3,2.09-7.84,2.09-8.15
		c0-0.38-0.61-0.38-0.98-0.36v-0.23c0.75-0.09,1.5-0.22,2.25-0.39l0.07,0.07l-2.18,8.36c-0.03,0.13-0.14,0.52-0.14,0.68
		c0,0.09,0,0.29,0.22,0.29c0.36,0,0.66-0.4,1.37-1.31L389.75,65.39z"/>
	<path fill="#B47020" d="M389.81,66.42c0-0.46,0.36-0.82,0.79-0.82c0.43,0,0.81,0.38,0.81,0.82c0,0.54-0.5,0.78-0.81,0.78
		S389.81,66.97,389.81,66.42z"/>
</g>
<g>
	<path fill="#006595" d="M93.62,28.78h8.64c1.28,0,2.37,0.23,3.27,0.68c1.12,0.57,2.06,1.53,2.85,2.87
		c0.78,1.34,1.17,2.92,1.17,4.75c0,1.51-0.23,2.87-0.7,4.08c-0.35,0.93-0.9,1.74-1.63,2.44c-0.74,0.69-1.63,1.22-2.69,1.56
		c-0.79,0.26-1.85,0.38-3.17,0.38h-7.74v-0.87h1.58c0.4,0,0.67-0.06,0.83-0.19c0.15-0.13,0.23-0.33,0.23-0.6V30.42
		c0-0.23-0.08-0.42-0.25-0.56c-0.16-0.14-0.39-0.21-0.69-0.21h-1.7V28.78z M99.66,29.65c-0.34,0-0.59,0.07-0.75,0.22
		c-0.16,0.14-0.24,0.36-0.24,0.64v13.34c0,0.27,0.09,0.48,0.28,0.62c0.19,0.14,0.51,0.21,0.96,0.21h1.43c1.28,0,2.4-0.33,3.36-0.98
		c0.63-0.44,1.1-1.05,1.43-1.84c0.45-1.07,0.67-2.55,0.67-4.43c0-2.79-0.49-4.83-1.46-6.12c-0.83-1.09-2.09-1.64-3.77-1.64H99.66z"
		/>
	<path fill="#006595" d="M115.25,34.62c1.43,0,2.63,0.52,3.6,1.54c0.97,1.03,1.46,2.38,1.46,4.06c0,1.16-0.22,2.15-0.65,2.97
		s-1.06,1.46-1.86,1.94c-0.81,0.47-1.67,0.71-2.6,0.71c-1.38,0-2.54-0.52-3.5-1.56c-0.96-1.04-1.44-2.39-1.44-4.04
		c0-1.66,0.48-3.02,1.44-4.06C112.66,35.14,113.84,34.62,115.25,34.62z M115.25,35.41c-0.85,0-1.55,0.38-2.1,1.15
		c-0.55,0.77-0.82,1.98-0.82,3.63c0,1.68,0.27,2.91,0.82,3.69c0.54,0.78,1.25,1.17,2.11,1.17c0.89,0,1.61-0.39,2.16-1.17
		c0.55-0.78,0.83-2.05,0.83-3.82c0-1.64-0.27-2.82-0.81-3.56C116.88,35.78,116.15,35.41,115.25,35.41z"/>
	<path fill="#006595" d="M120.27,34.92h4.65v0.79h-0.61c-0.3,0-0.52,0.05-0.65,0.14c-0.13,0.09-0.19,0.22-0.19,0.38
		c0,0.16,0.04,0.34,0.11,0.53l2.39,6l2.06-5.68c-0.28-0.62-0.53-1-0.75-1.15c-0.22-0.14-0.6-0.21-1.15-0.21v-0.79h5.11v0.79h-0.43
		c-0.39,0-0.66,0.05-0.81,0.15c-0.15,0.1-0.22,0.24-0.22,0.42c0,0.13,0.03,0.29,0.1,0.47l2.41,6l1.91-5.33
		c0.13-0.35,0.19-0.65,0.19-0.9c0-0.25-0.1-0.44-0.29-0.57c-0.2-0.13-0.57-0.21-1.11-0.24v-0.79h4.13v0.79
		c-0.51,0.08-0.9,0.24-1.17,0.48c-0.26,0.24-0.49,0.6-0.67,1.08l-3.08,8.57h-0.66l-2.98-7.34l-2.67,7.34h-0.69l-3.77-9.37
		c-0.12-0.29-0.26-0.48-0.41-0.58c-0.15-0.1-0.41-0.16-0.77-0.17V34.92z"/>
	<path fill="#006595" d="M137.05,34.88l3.54-0.19c0.14,0.67,0.24,1.45,0.3,2.34c0.47-0.77,1.03-1.35,1.68-1.73
		c0.64-0.38,1.37-0.58,2.18-0.58c0.7,0,1.29,0.14,1.76,0.41c0.47,0.27,0.85,0.71,1.14,1.31c0.29,0.59,0.43,1.26,0.43,2v5.15
		c0,0.38,0.08,0.66,0.26,0.82s0.46,0.24,0.86,0.24h0.73v0.87h-5.53v-0.87h0.53c0.49,0,0.83-0.08,1.03-0.24
		c0.19-0.16,0.29-0.4,0.29-0.71v-4.53c0-0.99-0.15-1.72-0.45-2.19c-0.42-0.68-1.06-1.02-1.92-1.02c-0.85,0-1.56,0.34-2.13,1.03
		c-0.57,0.69-0.85,1.58-0.85,2.68v3.92c0,0.38,0.09,0.66,0.26,0.82c0.17,0.16,0.46,0.24,0.86,0.24h0.72v0.87h-5.57v-0.87h0.73
		c0.37,0,0.64-0.08,0.83-0.23c0.19-0.15,0.28-0.34,0.28-0.57v-6.86c0-0.45-0.12-0.8-0.37-1.03c-0.24-0.23-0.59-0.35-1.05-0.35h-0.54
		V34.88z"/>
	<path fill="#006595" d="M164.84,30.06l1.02-1.51h0.79l0.08,6.1h-0.79c-0.46-1.86-1.15-3.21-2.06-4.06
		c-0.91-0.85-1.96-1.28-3.14-1.28c-0.99,0-1.8,0.3-2.43,0.89c-0.63,0.59-0.94,1.32-0.94,2.17c0,0.53,0.12,1,0.36,1.4
		c0.24,0.4,0.6,0.73,1.09,0.98c0.48,0.25,1.39,0.52,2.72,0.81c1.87,0.41,3.17,0.82,3.92,1.24c0.75,0.42,1.3,0.94,1.67,1.57
		c0.37,0.63,0.55,1.37,0.55,2.22c0,1.51-0.51,2.77-1.52,3.76c-1.02,0.99-2.33,1.49-3.94,1.49c-1.73,0-3.23-0.56-4.51-1.69
		l-1.28,1.58h-0.79v-6.47h0.79c0.32,1.78,1.03,3.19,2.13,4.22c1.1,1.03,2.35,1.54,3.74,1.54c1.12,0,2.03-0.33,2.74-0.99
		c0.71-0.66,1.06-1.46,1.06-2.41c0-0.54-0.13-1.01-0.4-1.41c-0.26-0.4-0.68-0.74-1.26-1.02c-0.58-0.27-1.71-0.6-3.39-0.99
		c-1.85-0.43-3.11-0.92-3.78-1.46c-0.94-0.77-1.41-1.86-1.41-3.26c0-1.47,0.47-2.67,1.41-3.61c0.94-0.94,2.14-1.41,3.61-1.41
		c0.7,0,1.37,0.12,2.01,0.37C163.5,29.07,164.16,29.48,164.84,30.06z"/>
	<path fill="#006595" d="M167.85,34.92h5.08v0.75h-0.48c-0.45,0-0.75,0.06-0.91,0.18c-0.16,0.12-0.24,0.29-0.24,0.51
		c0,0.1,0.02,0.2,0.07,0.3l2.95,6.34l2.23-5.25c0.16-0.38,0.24-0.75,0.24-1.12c0-0.28-0.11-0.5-0.33-0.66
		c-0.22-0.16-0.66-0.26-1.31-0.3v-0.75h4.4v0.75c-0.83,0.08-1.39,0.47-1.67,1.16l-3.99,9.13c-0.68,1.55-1.35,2.62-2.02,3.2
		c-0.68,0.59-1.41,0.88-2.18,0.88c-0.56,0-1.02-0.16-1.36-0.46c-0.34-0.31-0.51-0.69-0.51-1.15c0-0.34,0.11-0.62,0.32-0.84
		c0.21-0.22,0.48-0.33,0.8-0.33c0.29,0,0.53,0.09,0.73,0.28c0.2,0.19,0.3,0.41,0.3,0.67c0,0.08-0.02,0.19-0.05,0.34
		c-0.03,0.11-0.05,0.19-0.05,0.25c0,0.18,0.12,0.27,0.35,0.27c0.25,0,0.53-0.09,0.84-0.27c0.31-0.18,0.6-0.47,0.87-0.87
		c0.27-0.4,0.75-1.28,1.43-2.65l-4.02-8.62c-0.14-0.31-0.32-0.54-0.54-0.69c-0.22-0.15-0.53-0.25-0.95-0.31V34.92z"/>
	<path fill="#006595" d="M179.13,34.88l3.54-0.19c0.14,0.67,0.24,1.45,0.3,2.34c0.47-0.77,1.03-1.35,1.68-1.73
		c0.64-0.38,1.37-0.58,2.18-0.58c0.7,0,1.29,0.14,1.76,0.41c0.47,0.27,0.85,0.71,1.14,1.31c0.29,0.59,0.43,1.26,0.43,2v5.15
		c0,0.38,0.08,0.66,0.25,0.82s0.46,0.24,0.86,0.24H192v0.87h-5.53v-0.87h0.52c0.49,0,0.84-0.08,1.03-0.24
		c0.19-0.16,0.29-0.4,0.29-0.71v-4.53c0-0.99-0.15-1.72-0.45-2.19c-0.42-0.68-1.06-1.02-1.92-1.02c-0.85,0-1.56,0.34-2.12,1.03
		c-0.57,0.69-0.85,1.58-0.85,2.68v3.92c0,0.38,0.09,0.66,0.26,0.82c0.17,0.16,0.46,0.24,0.86,0.24h0.72v0.87h-5.57v-0.87h0.73
		c0.37,0,0.64-0.08,0.83-0.23c0.19-0.15,0.29-0.34,0.29-0.57v-6.86c0-0.45-0.12-0.8-0.37-1.03c-0.24-0.23-0.59-0.35-1.05-0.35h-0.54
		V34.88z"/>
	<path fill="#006595" d="M197.92,28.78l4.14-0.19v14.5c0,0.57,0.11,0.97,0.32,1.21c0.22,0.24,0.54,0.36,0.97,0.36h0.74v0.87h-3.65
		l-0.26-2.16c-0.43,0.77-0.93,1.34-1.51,1.73c-0.58,0.39-1.22,0.58-1.94,0.58c-1.2,0-2.23-0.5-3.08-1.52
		c-0.85-1.01-1.27-2.34-1.27-4c0-1.79,0.54-3.23,1.63-4.3c0.85-0.84,1.83-1.25,2.94-1.25c0.68,0,1.29,0.17,1.82,0.51
		c0.54,0.34,1.01,0.85,1.41,1.54v-5.99c0-0.32-0.12-0.57-0.37-0.75c-0.24-0.18-0.62-0.28-1.14-0.28h-0.75V28.78z M197.26,35.56
		c-0.81,0-1.46,0.34-1.94,1.01c-0.48,0.67-0.72,1.8-0.72,3.39c0,1.73,0.24,2.94,0.73,3.65c0.49,0.71,1.12,1.06,1.89,1.06
		c0.82,0,1.52-0.39,2.11-1.18c0.58-0.79,0.88-1.94,0.88-3.46c0-1.43-0.31-2.56-0.94-3.38C198.73,35.92,198.06,35.56,197.26,35.56z"
		/>
	<path fill="#006595" d="M203.66,34.92l3.8-0.19v4.27c0.4-1.41,0.89-2.47,1.46-3.19c0.57-0.72,1.28-1.08,2.12-1.08
		c0.57,0,1.03,0.17,1.37,0.52c0.34,0.35,0.51,0.82,0.51,1.4c0,0.47-0.12,0.84-0.34,1.1c-0.23,0.26-0.52,0.39-0.86,0.39
		c-0.34,0-0.61-0.11-0.82-0.34c-0.21-0.22-0.31-0.52-0.31-0.9c0-0.25,0.06-0.48,0.17-0.69c0.11-0.19,0.16-0.31,0.16-0.35
		c0-0.11-0.07-0.17-0.21-0.17c-0.31,0-0.65,0.18-1.04,0.54c-0.54,0.5-0.95,1.2-1.24,2.08c-0.45,1.37-0.67,2.46-0.67,3.28v2.27
		c0,0.26,0.09,0.45,0.27,0.59c0.18,0.14,0.49,0.2,0.93,0.2h1.35v0.87h-6.62v-0.87h1.06c0.36,0,0.63-0.07,0.81-0.21
		c0.18-0.14,0.27-0.31,0.27-0.5v-6.71c0-0.51-0.11-0.88-0.33-1.12c-0.22-0.24-0.53-0.35-0.93-0.35h-0.92V34.92z"/>
	<path fill="#006595" d="M217.74,34.62c1.43,0,2.63,0.52,3.6,1.54c0.97,1.03,1.46,2.38,1.46,4.06c0,1.16-0.22,2.15-0.65,2.97
		c-0.44,0.82-1.06,1.46-1.86,1.94c-0.81,0.47-1.67,0.71-2.6,0.71c-1.38,0-2.54-0.52-3.5-1.56c-0.96-1.04-1.44-2.39-1.44-4.04
		c0-1.66,0.48-3.02,1.44-4.06C215.15,35.14,216.33,34.62,217.74,34.62z M217.74,35.41c-0.85,0-1.55,0.38-2.1,1.15
		c-0.55,0.77-0.82,1.98-0.82,3.63c0,1.68,0.27,2.91,0.82,3.69c0.54,0.78,1.25,1.17,2.1,1.17c0.89,0,1.61-0.39,2.16-1.17
		c0.55-0.78,0.83-2.05,0.83-3.82c0-1.64-0.27-2.82-0.82-3.56C219.37,35.78,218.64,35.41,217.74,35.41z"/>
	<path fill="#006595" d="M223.58,34.92l3.05-0.19c0.17,0.79,0.29,1.55,0.34,2.27c0.57-0.83,1.14-1.42,1.71-1.76
		c0.57-0.34,1.2-0.51,1.88-0.51c0.73,0,1.33,0.19,1.8,0.58c0.47,0.39,0.84,1.01,1.09,1.88c0.5-0.82,1.07-1.44,1.68-1.85
		c0.62-0.41,1.29-0.61,2.02-0.61c0.96,0,1.69,0.29,2.17,0.86c0.62,0.75,0.93,1.73,0.93,2.92v5.26c0,0.32,0.08,0.53,0.24,0.64
		c0.21,0.17,0.52,0.26,0.93,0.26h0.53v0.87h-5.35v-0.87h0.54c0.46,0,0.78-0.08,0.96-0.23c0.18-0.15,0.27-0.38,0.27-0.68v-5.25
		c0-0.78-0.19-1.39-0.57-1.82c-0.38-0.43-0.88-0.64-1.51-0.64c-0.47,0-0.9,0.13-1.28,0.38c-0.38,0.25-0.68,0.61-0.9,1.08
		c-0.32,0.67-0.48,1.24-0.48,1.71v4.55c0,0.31,0.08,0.54,0.25,0.68c0.16,0.15,0.42,0.22,0.76,0.22h0.72v0.87h-5.42v-0.87h0.62
		c0.39,0,0.68-0.07,0.87-0.23c0.19-0.15,0.28-0.34,0.28-0.58v-4.87c0-1.03-0.18-1.78-0.54-2.25c-0.36-0.47-0.85-0.7-1.46-0.7
		c-0.79,0-1.4,0.27-1.83,0.81c-0.61,0.77-0.91,1.66-0.91,2.69v4.22c0,0.32,0.07,0.55,0.21,0.67c0.2,0.16,0.52,0.24,0.94,0.24h0.54
		v0.87h-5.34v-0.87h0.8c0.3,0,0.53-0.08,0.69-0.23c0.16-0.15,0.24-0.34,0.24-0.58v-6.94c0-0.38-0.1-0.67-0.29-0.86
		c-0.2-0.19-0.59-0.31-1.18-0.36V34.92z"/>
	<path fill="#006595" d="M252.1,40.3h-7.68c0.04,1.61,0.34,2.74,0.92,3.4c0.66,0.74,1.49,1.11,2.5,1.11c1.5,0,2.7-0.84,3.6-2.52
		l0.73,0.32c-1.1,2.15-2.7,3.22-4.78,3.22c-1.42,0-2.62-0.51-3.59-1.54c-0.97-1.02-1.46-2.33-1.46-3.93c0-1.72,0.48-3.1,1.44-4.16
		c0.96-1.06,2.13-1.59,3.54-1.59c1.03,0,1.92,0.26,2.67,0.79c0.75,0.53,1.31,1.29,1.69,2.27C251.94,38.37,252.08,39.25,252.1,40.3z
		 M244.42,39.51h4.66c0.28,0,0.49-0.09,0.64-0.28s0.23-0.5,0.23-0.95c0-0.83-0.26-1.54-0.79-2.12c-0.52-0.58-1.14-0.87-1.85-0.87
		c-0.8,0-1.47,0.35-2.03,1.05C244.73,37.05,244.44,38.11,244.42,39.51z"/>
	<path fill="#006595" d="M264.71,28.45h0.76l5.97,15.3c0.25,0.62,0.75,0.93,1.51,0.93h0.53v0.87h-6.66v-0.87h0.53
		c0.69,0,1.18-0.08,1.47-0.23c0.2-0.1,0.29-0.27,0.29-0.49c0-0.13-0.03-0.26-0.08-0.41L267.64,40h-6.61l-0.82,2.03
		c-0.2,0.54-0.31,0.97-0.31,1.29c0,0.37,0.17,0.69,0.51,0.95s0.84,0.4,1.5,0.4h0.56v0.87h-6.06v-0.87c0.65,0,1.16-0.14,1.54-0.42
		c0.38-0.28,0.72-0.82,1.04-1.61L264.71,28.45z M264.39,31.67l-3.01,7.47h5.92L264.39,31.67z"/>
	<path fill="#006595" d="M273.99,41.55c0.47,1.32,1.01,2.23,1.62,2.74c0.61,0.51,1.36,0.76,2.25,0.76c0.82,0,1.46-0.18,1.9-0.54
		c0.44-0.36,0.66-0.82,0.66-1.37c0-0.32-0.08-0.6-0.24-0.84c-0.16-0.24-0.39-0.42-0.68-0.54c-0.29-0.12-1.03-0.29-2.24-0.52
		c-1.15-0.23-1.95-0.47-2.41-0.72s-0.81-0.59-1.06-1.03s-0.38-0.91-0.38-1.43c0-0.78,0.26-1.48,0.78-2.12
		c0.67-0.81,1.61-1.21,2.83-1.21c0.92,0,1.78,0.29,2.56,0.86l0.75-0.79h0.47l0.29,3.76h-0.75c-0.33-1.08-0.78-1.86-1.35-2.34
		s-1.27-0.71-2.1-0.71c-0.72,0-1.28,0.18-1.69,0.54c-0.41,0.36-0.61,0.79-0.61,1.3c0,0.45,0.19,0.83,0.57,1.13
		c0.37,0.31,1.1,0.55,2.18,0.72c1.26,0.21,2.07,0.39,2.45,0.53c0.62,0.23,1.1,0.57,1.44,1.04s0.51,1.04,0.51,1.72
		c0,0.93-0.37,1.72-1.11,2.37c-0.74,0.65-1.68,0.97-2.81,0.97c-1.05,0-2.03-0.34-2.93-1.03l-0.83,0.95h-0.6l-0.23-4.22H273.99z"/>
	<path fill="#006595" d="M283.33,41.55c0.47,1.32,1.01,2.23,1.62,2.74c0.61,0.51,1.36,0.76,2.25,0.76c0.83,0,1.46-0.18,1.9-0.54
		c0.44-0.36,0.66-0.82,0.66-1.37c0-0.32-0.08-0.6-0.24-0.84c-0.16-0.24-0.39-0.42-0.68-0.54c-0.29-0.12-1.03-0.29-2.24-0.52
		c-1.15-0.23-1.95-0.47-2.41-0.72s-0.81-0.59-1.06-1.03s-0.38-0.91-0.38-1.43c0-0.78,0.26-1.48,0.78-2.12
		c0.67-0.81,1.61-1.21,2.82-1.21c0.92,0,1.78,0.29,2.56,0.86l0.75-0.79h0.47l0.29,3.76h-0.75c-0.33-1.08-0.78-1.86-1.35-2.34
		c-0.57-0.48-1.27-0.71-2.1-0.71c-0.72,0-1.28,0.18-1.69,0.54c-0.41,0.36-0.61,0.79-0.61,1.3c0,0.45,0.19,0.83,0.57,1.13
		c0.37,0.31,1.1,0.55,2.18,0.72c1.26,0.21,2.07,0.39,2.45,0.53c0.62,0.23,1.1,0.57,1.44,1.04s0.51,1.04,0.51,1.72
		c0,0.93-0.37,1.72-1.11,2.37c-0.74,0.65-1.68,0.97-2.81,0.97c-1.05,0-2.03-0.34-2.93-1.03l-0.83,0.95h-0.6l-0.23-4.22H283.33z"/>
	<path fill="#006595" d="M296.41,34.62c1.43,0,2.63,0.52,3.6,1.54c0.97,1.03,1.46,2.38,1.46,4.06c0,1.16-0.22,2.15-0.65,2.97
		c-0.43,0.82-1.05,1.46-1.86,1.94c-0.81,0.47-1.67,0.71-2.6,0.71c-1.38,0-2.54-0.52-3.5-1.56c-0.96-1.04-1.44-2.39-1.44-4.04
		c0-1.66,0.48-3.02,1.44-4.06C293.82,35.14,295.01,34.62,296.41,34.62z M296.41,35.41c-0.85,0-1.55,0.38-2.1,1.15
		c-0.55,0.77-0.82,1.98-0.82,3.63c0,1.68,0.27,2.91,0.82,3.69c0.54,0.78,1.25,1.17,2.1,1.17c0.89,0,1.61-0.39,2.16-1.17
		c0.55-0.78,0.83-2.05,0.83-3.82c0-1.64-0.27-2.82-0.82-3.56C298.04,35.78,297.32,35.41,296.41,35.41z"/>
	<path fill="#006595" d="M309.7,42.37l0.73,0.21c-0.59,2.17-1.89,3.25-3.9,3.25c-1.47,0-2.68-0.49-3.62-1.46
		c-0.94-0.97-1.41-2.26-1.41-3.87c0-1.87,0.51-3.31,1.54-4.34c1.03-1.03,2.24-1.54,3.62-1.54c1.04,0,1.9,0.29,2.58,0.86
		c0.68,0.57,1.02,1.21,1.02,1.9c0,0.42-0.13,0.77-0.38,1.04c-0.26,0.27-0.56,0.41-0.91,0.41c-0.34,0-0.63-0.12-0.87-0.35
		c-0.24-0.23-0.36-0.51-0.36-0.84c0-0.33,0.15-0.65,0.43-0.95c0.14-0.14,0.21-0.25,0.21-0.34c0-0.22-0.15-0.43-0.45-0.64
		c-0.3-0.21-0.7-0.31-1.22-0.31c-0.93,0-1.64,0.33-2.12,1c-0.69,0.97-1.03,2.24-1.03,3.82c0,1.51,0.3,2.65,0.91,3.42
		s1.38,1.16,2.32,1.16C308.11,44.82,309.07,44,309.7,42.37z"/>
	<path fill="#006595" d="M310.33,34.92l4.22-0.11v9.1c0,0.25,0.06,0.43,0.18,0.53c0.17,0.15,0.39,0.23,0.66,0.23h1.2v0.87h-6.02
		v-0.87h1.12c0.33,0,0.57-0.08,0.72-0.24c0.15-0.16,0.23-0.4,0.23-0.71v-6.66c0-0.42-0.12-0.74-0.36-0.95
		c-0.24-0.21-0.6-0.32-1.07-0.32h-0.87V34.92z"/>
	<path fill="#006595" d="M313.26,30.4c0.34,0,0.64,0.13,0.9,0.39c0.26,0.26,0.39,0.56,0.39,0.91c0,0.34-0.12,0.64-0.38,0.89
		c-0.25,0.25-0.55,0.38-0.9,0.38c-0.35,0-0.65-0.13-0.9-0.38c-0.25-0.25-0.38-0.55-0.38-0.89c0-0.34,0.13-0.64,0.39-0.9
		C312.63,30.53,312.92,30.4,313.26,30.4z"/>
	<path fill="#006595" d="M327.6,44.41l0.41,0.61c-0.56,0.54-1.18,0.82-1.86,0.82c-0.52,0-0.96-0.14-1.31-0.42
		c-0.36-0.28-0.67-0.76-0.93-1.46c-0.71,0.75-1.34,1.25-1.88,1.5c-0.54,0.25-1.19,0.38-1.95,0.38c-1.08,0-1.91-0.23-2.47-0.7
		s-0.85-1.07-0.85-1.8c0-1.1,0.64-2.02,1.93-2.74c1.29-0.73,3-1.21,5.14-1.45v-1.62c0-0.58-0.23-1.07-0.69-1.49
		c-0.46-0.41-1.05-0.62-1.76-0.62c-0.66,0-1.23,0.14-1.7,0.42c-0.34,0.21-0.51,0.41-0.51,0.61c0,0.12,0.1,0.3,0.29,0.54
		c0.23,0.31,0.35,0.58,0.35,0.82c0,0.35-0.11,0.63-0.33,0.85s-0.51,0.33-0.86,0.33c-0.38,0-0.7-0.13-0.95-0.39
		c-0.25-0.26-0.38-0.59-0.38-0.99c0-0.75,0.42-1.44,1.26-2.06s1.95-0.93,3.32-0.93c1.26,0,2.23,0.27,2.89,0.81c0.66,0.55,1,1.22,1,2
		v5.78c0,0.51,0.08,0.89,0.25,1.13c0.17,0.25,0.39,0.37,0.65,0.37C326.96,44.71,327.28,44.61,327.6,44.41z M323.84,39.89
		c-1.9,0.26-3.25,0.7-4.04,1.29c-0.59,0.45-0.89,1.1-0.89,1.93c0,0.58,0.15,1.04,0.46,1.37c0.31,0.33,0.71,0.49,1.2,0.49
		c0.88,0,1.65-0.34,2.3-1.01c0.65-0.68,0.97-1.53,0.97-2.55V39.89z"/>
	<path fill="#006595" d="M330.71,30.59h0.75v4.33h3.43v1.02h-3.43v6.83c0,0.59,0.14,1.04,0.42,1.36c0.28,0.31,0.63,0.47,1.06,0.47
		c0.51,0,0.95-0.24,1.31-0.72c0.36-0.48,0.57-1.27,0.63-2.37h0.75c-0.04,1.42-0.37,2.47-0.96,3.15c-0.6,0.69-1.37,1.03-2.33,1.03
		c-0.88,0-1.57-0.24-2.06-0.72c-0.5-0.48-0.74-1.11-0.74-1.89v-7.14h-1.85v-0.77c0.85-0.14,1.5-0.49,1.94-1.05
		C330.3,33.27,330.65,32.1,330.71,30.59z"/>
	<path fill="#006595" d="M335.36,34.92l4.21-0.11v9.1c0,0.25,0.06,0.43,0.18,0.53c0.17,0.15,0.39,0.23,0.66,0.23h1.2v0.87h-6.02
		v-0.87h1.11c0.33,0,0.57-0.08,0.73-0.24c0.15-0.16,0.23-0.4,0.23-0.71v-6.66c0-0.42-0.12-0.74-0.36-0.95
		c-0.24-0.21-0.6-0.32-1.07-0.32h-0.87V34.92z"/>
	<path fill="#006595" d="M338.29,30.4c0.34,0,0.64,0.13,0.9,0.39c0.26,0.26,0.39,0.56,0.39,0.91c0,0.34-0.12,0.64-0.38,0.89
		c-0.25,0.25-0.55,0.38-0.9,0.38c-0.35,0-0.65-0.13-0.9-0.38c-0.25-0.25-0.38-0.55-0.38-0.89c0-0.34,0.13-0.64,0.39-0.9
		S337.96,30.4,338.29,30.4z"/>
	<path fill="#006595" d="M346.45,34.62c1.43,0,2.63,0.52,3.6,1.54c0.97,1.03,1.46,2.38,1.46,4.06c0,1.16-0.22,2.15-0.65,2.97
		c-0.44,0.82-1.06,1.46-1.86,1.94c-0.81,0.47-1.67,0.71-2.6,0.71c-1.38,0-2.54-0.52-3.5-1.56c-0.96-1.04-1.44-2.39-1.44-4.04
		c0-1.66,0.48-3.02,1.44-4.06C343.86,35.14,345.04,34.62,346.45,34.62z M346.45,35.41c-0.85,0-1.55,0.38-2.1,1.15
		c-0.55,0.77-0.82,1.98-0.82,3.63c0,1.68,0.27,2.91,0.82,3.69c0.54,0.78,1.25,1.17,2.1,1.17c0.89,0,1.61-0.39,2.16-1.17
		c0.55-0.78,0.83-2.05,0.83-3.82c0-1.64-0.27-2.82-0.82-3.56C348.08,35.78,347.35,35.41,346.45,35.41z"/>
	<path fill="#006595" d="M351.62,34.88l3.54-0.19c0.14,0.67,0.24,1.45,0.3,2.34c0.47-0.77,1.03-1.35,1.68-1.73
		c0.64-0.38,1.37-0.58,2.18-0.58c0.7,0,1.29,0.14,1.76,0.41c0.47,0.27,0.85,0.71,1.14,1.31c0.29,0.59,0.43,1.26,0.43,2v5.15
		c0,0.38,0.08,0.66,0.26,0.82c0.17,0.16,0.46,0.24,0.86,0.24h0.73v0.87h-5.53v-0.87h0.53c0.49,0,0.83-0.08,1.03-0.24
		c0.19-0.16,0.29-0.4,0.29-0.71v-4.53c0-0.99-0.15-1.72-0.45-2.19c-0.42-0.68-1.06-1.02-1.92-1.02c-0.85,0-1.56,0.34-2.13,1.03
		c-0.57,0.69-0.85,1.58-0.85,2.68v3.92c0,0.38,0.09,0.66,0.26,0.82s0.46,0.24,0.86,0.24h0.72v0.87h-5.57v-0.87h0.73
		c0.37,0,0.64-0.08,0.83-0.23c0.19-0.15,0.28-0.34,0.28-0.57v-6.86c0-0.45-0.12-0.8-0.36-1.03c-0.24-0.23-0.59-0.35-1.05-0.35h-0.54
		V34.88z"/>
</g>
<g>
	<path fill="#006595" d="M93.92,49.53h5.61v0.86h-0.39c-0.58,0-0.95,0.05-1.11,0.14c-0.16,0.09-0.24,0.23-0.24,0.43
		c0,0.14,0.06,0.35,0.17,0.64l0.07,0.21l3.37,10.64l2.99-9.86c-0.34-1.1-0.61-1.74-0.79-1.92c-0.19-0.19-0.56-0.28-1.11-0.28h-1.03
		v-0.86h7v0.86h-0.72c-0.63,0-1.04,0.05-1.23,0.15c-0.19,0.1-0.28,0.25-0.28,0.45c0,0.16,0.02,0.3,0.07,0.44l3.46,11.02l2.84-9.53
		c0.11-0.37,0.17-0.72,0.17-1.06c0-0.5-0.12-0.87-0.35-1.11c-0.23-0.24-0.59-0.36-1.06-0.36h-0.53v-0.86h5.27v0.86
		c-0.46,0.06-0.82,0.17-1.09,0.33c-0.27,0.16-0.51,0.39-0.71,0.69s-0.4,0.8-0.6,1.5l-4.1,13.77h-0.79l-3.86-12.32l-3.68,12.32h-0.85
		L95.7,51.81c-0.19-0.58-0.4-0.96-0.64-1.14c-0.24-0.18-0.62-0.28-1.14-0.28V49.53z"/>
	<path fill="#006595" d="M124.3,61.04h-7.68c0.04,1.61,0.34,2.74,0.91,3.4c0.66,0.75,1.49,1.12,2.5,1.12c1.49,0,2.69-0.84,3.6-2.52
		l0.73,0.32c-1.1,2.15-2.7,3.22-4.78,3.22c-1.42,0-2.62-0.51-3.59-1.54c-0.97-1.03-1.46-2.33-1.46-3.93c0-1.72,0.48-3.1,1.44-4.16
		c0.96-1.06,2.14-1.59,3.53-1.59c1.03,0,1.92,0.26,2.67,0.79c0.75,0.53,1.31,1.29,1.69,2.27C124.15,59.12,124.29,59.99,124.3,61.04z
		 M116.62,60.25h4.66c0.27,0,0.49-0.09,0.64-0.28s0.23-0.5,0.23-0.95c0-0.83-0.26-1.54-0.79-2.12c-0.53-0.58-1.14-0.87-1.85-0.87
		c-0.8,0-1.47,0.35-2.03,1.05C116.93,57.79,116.65,58.85,116.62,60.25z"/>
	<path fill="#006595" d="M125.8,62.29c0.47,1.32,1.01,2.23,1.62,2.74s1.36,0.76,2.25,0.76c0.83,0,1.46-0.18,1.9-0.54
		c0.44-0.36,0.66-0.82,0.66-1.37c0-0.32-0.08-0.6-0.24-0.84c-0.16-0.24-0.39-0.42-0.68-0.54s-1.03-0.29-2.24-0.52
		c-1.15-0.23-1.95-0.47-2.41-0.71c-0.45-0.25-0.81-0.59-1.06-1.03c-0.25-0.44-0.38-0.92-0.38-1.43c0-0.78,0.26-1.48,0.78-2.12
		c0.67-0.81,1.61-1.21,2.82-1.21c0.92,0,1.78,0.29,2.56,0.86l0.75-0.79h0.46l0.29,3.76h-0.75c-0.33-1.08-0.78-1.86-1.35-2.33
		c-0.57-0.48-1.27-0.71-2.1-0.71c-0.72,0-1.28,0.18-1.69,0.54c-0.41,0.36-0.61,0.79-0.61,1.31c0,0.45,0.19,0.83,0.57,1.12
		c0.37,0.31,1.1,0.55,2.18,0.72c1.26,0.21,2.07,0.39,2.45,0.53c0.62,0.23,1.1,0.57,1.44,1.04c0.34,0.47,0.51,1.04,0.51,1.72
		c0,0.93-0.37,1.72-1.11,2.37c-0.74,0.65-1.68,0.97-2.81,0.97c-1.05,0-2.03-0.34-2.93-1.02l-0.83,0.95h-0.6l-0.23-4.22H125.8z"/>
	<path fill="#006595" d="M136.68,51.33h0.75v4.33h3.43v1.02h-3.43v6.83c0,0.59,0.14,1.04,0.42,1.36c0.28,0.31,0.63,0.47,1.06,0.47
		c0.51,0,0.95-0.24,1.31-0.72c0.36-0.48,0.57-1.27,0.63-2.37h0.75c-0.05,1.42-0.37,2.47-0.96,3.15c-0.6,0.69-1.38,1.03-2.33,1.03
		c-0.88,0-1.57-0.24-2.06-0.72c-0.5-0.48-0.74-1.11-0.74-1.89v-7.14h-1.84V55.9c0.85-0.14,1.5-0.49,1.94-1.05
		C136.27,54.01,136.63,52.84,136.68,51.33z"/>
	<path fill="#006595" d="M146.2,49.53h5.58l4.98,13.23l4.57-13.23h5.73v0.86h-1.39c-0.49,0-0.82,0.07-0.99,0.21
		c-0.17,0.14-0.25,0.39-0.25,0.75v13.23c0,0.26,0.1,0.47,0.3,0.61c0.2,0.14,0.55,0.21,1.05,0.21h1.28v0.87h-7.68v-0.87h1.43
		c0.41,0,0.71-0.08,0.91-0.23c0.2-0.16,0.29-0.36,0.29-0.59V50.38l-5.49,15.9h-0.78l-5.96-15.83V62.6c0,0.72,0.09,1.27,0.27,1.62
		c0.18,0.36,0.44,0.63,0.77,0.83c0.33,0.19,0.89,0.31,1.67,0.36v0.87h-6.29v-0.87c1.02-0.07,1.72-0.29,2.09-0.67
		c0.37-0.38,0.55-1.04,0.55-2V51.21c0-0.29-0.09-0.49-0.26-0.63s-0.49-0.2-0.96-0.2h-1.41V49.53z"/>
	<path fill="#006595" d="M166.87,55.66l4.22-0.11v9.11c0,0.25,0.06,0.43,0.18,0.53c0.17,0.15,0.39,0.23,0.66,0.23h1.2v0.87h-6.02
		v-0.87h1.11c0.33,0,0.57-0.08,0.73-0.24c0.15-0.16,0.23-0.4,0.23-0.71V57.8c0-0.42-0.12-0.74-0.36-0.95
		c-0.24-0.21-0.6-0.32-1.07-0.32h-0.87V55.66z"/>
	<path fill="#006595" d="M169.8,51.15c0.34,0,0.64,0.13,0.9,0.39c0.26,0.26,0.39,0.56,0.39,0.91c0,0.34-0.13,0.64-0.38,0.89
		c-0.25,0.25-0.55,0.37-0.9,0.37c-0.35,0-0.65-0.12-0.9-0.38s-0.38-0.55-0.38-0.89c0-0.34,0.13-0.64,0.39-0.9
		C169.17,51.27,169.47,51.15,169.8,51.15z"/>
	<path fill="#006595" d="M181.05,63.11l0.73,0.21c-0.59,2.17-1.89,3.25-3.9,3.25c-1.47,0-2.68-0.48-3.62-1.46
		c-0.94-0.97-1.41-2.26-1.41-3.88c0-1.87,0.51-3.32,1.54-4.34c1.03-1.03,2.24-1.54,3.63-1.54c1.04,0,1.9,0.28,2.58,0.86
		c0.68,0.57,1.02,1.21,1.02,1.91c0,0.42-0.13,0.77-0.38,1.04c-0.26,0.27-0.56,0.41-0.91,0.41c-0.34,0-0.63-0.12-0.87-0.35
		c-0.24-0.23-0.35-0.51-0.35-0.85s0.14-0.65,0.44-0.95c0.14-0.14,0.2-0.25,0.2-0.34c0-0.22-0.15-0.43-0.45-0.64
		c-0.3-0.21-0.7-0.31-1.22-0.31c-0.93,0-1.64,0.33-2.12,1c-0.69,0.97-1.03,2.24-1.03,3.82c0,1.51,0.3,2.65,0.91,3.42
		c0.61,0.77,1.38,1.16,2.32,1.16C179.45,65.56,180.42,64.75,181.05,63.11z"/>
	<path fill="#006595" d="M181.56,49.53l3.99-0.19v8.19c0.56-0.72,1.16-1.27,1.81-1.62c0.64-0.36,1.33-0.54,2.05-0.54
		c0.68,0,1.29,0.16,1.84,0.49c0.42,0.25,0.79,0.7,1.08,1.34c0.3,0.64,0.45,1.4,0.45,2.27v5.03c0,0.32,0.08,0.56,0.25,0.7
		s0.42,0.22,0.77,0.22h0.9v0.87h-5.76v-0.87h0.64c0.48,0,0.82-0.08,1-0.23c0.19-0.16,0.28-0.38,0.28-0.69v-5.02
		c0-0.88-0.21-1.56-0.64-2.06c-0.43-0.49-0.97-0.74-1.63-0.74c-0.52,0-1,0.14-1.45,0.42c-0.44,0.28-0.82,0.7-1.13,1.27
		c-0.31,0.57-0.46,1.17-0.46,1.8v4.21c0,0.38,0.08,0.64,0.24,0.8c0.16,0.16,0.42,0.24,0.78,0.24h0.9v0.87h-5.61v-0.87h0.64
		c0.44,0,0.74-0.08,0.93-0.25s0.27-0.43,0.27-0.79V51.74c0-0.45-0.12-0.79-0.35-1.01c-0.24-0.22-0.58-0.33-1.03-0.33h-0.76V49.53z"
		/>
	<path fill="#006595" d="M194.44,55.66l4.22-0.11v9.11c0,0.25,0.06,0.43,0.18,0.53c0.17,0.15,0.39,0.23,0.66,0.23h1.2v0.87h-6.02
		v-0.87h1.11c0.33,0,0.57-0.08,0.73-0.24c0.15-0.16,0.23-0.4,0.23-0.71V57.8c0-0.42-0.12-0.74-0.36-0.95
		c-0.24-0.21-0.6-0.32-1.07-0.32h-0.87V55.66z"/>
	<path fill="#006595" d="M197.37,51.15c0.34,0,0.64,0.13,0.9,0.39c0.26,0.26,0.39,0.56,0.39,0.91c0,0.34-0.12,0.64-0.38,0.89
		c-0.25,0.25-0.55,0.37-0.9,0.37c-0.35,0-0.65-0.12-0.9-0.38c-0.25-0.25-0.38-0.55-0.38-0.89c0-0.34,0.13-0.64,0.39-0.9
		C196.74,51.27,197.03,51.15,197.37,51.15z"/>
	<path fill="#006595" d="M208.67,56.28c0.76-0.76,1.46-1.14,2.1-1.14c0.38,0,0.7,0.12,0.95,0.36c0.25,0.24,0.38,0.54,0.38,0.88
		c0,0.28-0.09,0.51-0.26,0.7c-0.17,0.19-0.37,0.28-0.6,0.28c-0.43,0-0.73-0.26-0.88-0.79c-0.06-0.22-0.16-0.34-0.31-0.34
		c-0.26,0-0.54,0.17-0.84,0.5c0.33,0.44,0.55,0.83,0.67,1.16c0.12,0.33,0.18,0.68,0.18,1.06c0,0.66-0.16,1.24-0.48,1.74
		c-0.32,0.5-0.85,0.94-1.58,1.33c-0.74,0.39-1.45,0.58-2.12,0.58h-1.24c-0.88,0-1.46,0.09-1.75,0.27c-0.29,0.19-0.43,0.47-0.43,0.83
		c0,0.3,0.12,0.52,0.35,0.68c0.23,0.16,0.68,0.24,1.33,0.24l2.81-0.07c1.42,0,2.44,0.24,3.07,0.71c0.63,0.47,0.94,1.12,0.94,1.94
		c0,0.9-0.36,1.67-1.07,2.29c-0.99,0.88-2.47,1.31-4.44,1.31c-1.63,0-2.83-0.3-3.62-0.89c-0.62-0.46-0.93-0.98-0.93-1.56
		c0-0.44,0.19-0.84,0.58-1.21c0.38-0.37,1.04-0.64,1.98-0.82c-0.75-0.18-1.31-0.45-1.69-0.8s-0.57-0.79-0.57-1.31
		c0-0.49,0.15-0.91,0.46-1.27c0.31-0.36,0.84-0.67,1.6-0.93c-0.65-0.35-1.13-0.78-1.46-1.29c-0.33-0.5-0.49-1.08-0.49-1.73
		c0-1.03,0.41-1.89,1.22-2.58c0.81-0.7,1.87-1.04,3.16-1.04c0.53,0,1.04,0.07,1.54,0.23C207.73,55.74,208.21,55.97,208.67,56.28z
		 M206.4,66.28c-1.41,0-2.41,0.19-3.01,0.58c-0.6,0.38-0.9,0.85-0.9,1.39c0,0.51,0.22,0.92,0.68,1.21c0.6,0.39,1.45,0.59,2.55,0.59
		c1.32,0,2.3-0.22,2.97-0.65s1-0.91,1-1.43c0-0.31-0.1-0.6-0.31-0.86c-0.21-0.27-0.54-0.47-0.99-0.61
		C207.94,66.34,207.27,66.28,206.4,66.28z M205.69,56.08c-0.67,0-1.23,0.25-1.67,0.74c-0.44,0.5-0.66,1.19-0.66,2.08
		c0,0.95,0.22,1.69,0.66,2.22c0.44,0.53,1,0.79,1.68,0.79c0.68,0,1.24-0.25,1.67-0.77c0.44-0.51,0.65-1.24,0.65-2.2
		c0-0.89-0.22-1.58-0.66-2.1C206.92,56.33,206.36,56.08,205.69,56.08z"/>
	<path fill="#006595" d="M222.77,65.15l0.41,0.61c-0.56,0.55-1.18,0.82-1.86,0.82c-0.52,0-0.96-0.14-1.32-0.41
		c-0.36-0.28-0.67-0.76-0.94-1.46c-0.71,0.75-1.34,1.25-1.88,1.5c-0.54,0.25-1.19,0.38-1.95,0.38c-1.08,0-1.9-0.23-2.47-0.7
		c-0.56-0.47-0.85-1.07-0.85-1.8c0-1.1,0.64-2.02,1.93-2.75c1.29-0.73,3-1.21,5.14-1.45v-1.62c0-0.58-0.23-1.07-0.69-1.49
		c-0.46-0.41-1.05-0.62-1.76-0.62c-0.66,0-1.23,0.14-1.7,0.42c-0.34,0.21-0.51,0.41-0.51,0.61c0,0.12,0.1,0.3,0.29,0.54
		c0.23,0.31,0.35,0.58,0.35,0.82c0,0.35-0.11,0.63-0.33,0.85c-0.22,0.22-0.51,0.33-0.86,0.33c-0.38,0-0.7-0.13-0.95-0.39
		c-0.25-0.26-0.38-0.59-0.38-0.99c0-0.75,0.42-1.44,1.26-2.06s1.95-0.93,3.32-0.93c1.26,0,2.23,0.27,2.89,0.81c0.67,0.55,1,1.22,1,2
		v5.78c0,0.51,0.08,0.89,0.25,1.13c0.17,0.25,0.38,0.37,0.65,0.37C222.13,65.45,222.44,65.35,222.77,65.15z M219.01,60.63
		c-1.9,0.26-3.25,0.7-4.04,1.29c-0.59,0.45-0.89,1.1-0.89,1.93c0,0.58,0.15,1.04,0.46,1.37s0.71,0.49,1.2,0.49
		c0.88,0,1.65-0.34,2.3-1.02c0.65-0.67,0.97-1.52,0.97-2.55V60.63z"/>
	<path fill="#006595" d="M223.05,55.62l3.54-0.19c0.14,0.67,0.24,1.45,0.3,2.34c0.47-0.77,1.03-1.35,1.68-1.73
		c0.64-0.38,1.37-0.58,2.18-0.58c0.7,0,1.29,0.14,1.76,0.41c0.47,0.28,0.85,0.71,1.14,1.31c0.29,0.6,0.43,1.26,0.43,2v5.15
		c0,0.38,0.08,0.66,0.26,0.82c0.17,0.16,0.46,0.24,0.86,0.24h0.73v0.87h-5.53v-0.87h0.53c0.49,0,0.83-0.08,1.03-0.24
		c0.19-0.16,0.29-0.39,0.29-0.71v-4.53c0-0.99-0.15-1.72-0.45-2.2c-0.42-0.68-1.06-1.02-1.92-1.02c-0.85,0-1.56,0.34-2.13,1.03
		c-0.57,0.69-0.85,1.58-0.85,2.68v3.92c0,0.38,0.09,0.66,0.26,0.82c0.17,0.16,0.46,0.24,0.86,0.24h0.72v0.87h-5.57v-0.87h0.73
		c0.37,0,0.64-0.08,0.83-0.23c0.19-0.15,0.29-0.34,0.29-0.57v-6.86c0-0.45-0.12-0.8-0.37-1.03c-0.24-0.23-0.59-0.35-1.05-0.35h-0.54
		V55.62z"/>
</g>
<g>
	<path fill="#006595" d="M82.04,61.71c0,0.86-0.23,1.71-0.68,2.55c-0.46,0.84-1.09,1.51-1.9,2c-0.81,0.49-1.6,0.74-2.37,0.74
		c-0.78,0-1.42-0.25-1.92-0.75c-0.5-0.5-0.74-1.15-0.74-1.95c0-0.84,0.24-1.69,0.73-2.53c0.48-0.85,1.13-1.52,1.94-2.01
		c0.81-0.49,1.59-0.74,2.35-0.74c0.76,0,1.38,0.25,1.87,0.75C81.79,60.27,82.04,60.91,82.04,61.71z M80.63,61.11
		c0-0.53-0.13-0.94-0.39-1.23c-0.26-0.28-0.6-0.42-1.01-0.42c-0.85,0-1.62,0.6-2.33,1.81c-0.71,1.21-1.06,2.41-1.06,3.6
		c0,0.54,0.14,0.96,0.41,1.26s0.62,0.44,1.04,0.44c0.81,0,1.57-0.6,2.28-1.8C80.27,63.56,80.63,62.34,80.63,61.11z"/>
	<path fill="#006595" d="M87.06,59.23l-0.15,0.56h-1.27l-1.03,3.8c-0.46,1.64-0.9,2.91-1.33,3.81c-0.6,1.27-1.25,2.15-1.95,2.64
		c-0.53,0.37-1.06,0.56-1.59,0.56c-0.34,0-0.64-0.1-0.88-0.31c-0.18-0.14-0.27-0.33-0.27-0.56c0-0.18,0.07-0.34,0.22-0.48
		c0.15-0.13,0.32-0.2,0.53-0.2c0.15,0,0.28,0.05,0.39,0.14c0.1,0.1,0.16,0.21,0.16,0.33s-0.06,0.24-0.18,0.35
		c-0.09,0.08-0.14,0.14-0.14,0.18c0,0.05,0.02,0.09,0.06,0.12c0.05,0.04,0.13,0.06,0.24,0.06c0.25,0,0.5-0.08,0.77-0.23
		s0.51-0.38,0.72-0.69c0.21-0.31,0.41-0.75,0.6-1.33c0.08-0.24,0.31-1.03,0.68-2.36l1.66-5.83h-1.68l0.12-0.56
		c0.53,0,0.9-0.03,1.11-0.1c0.21-0.06,0.4-0.19,0.58-0.38c0.18-0.18,0.38-0.53,0.63-1.04c0.32-0.69,0.63-1.21,0.93-1.59
		c0.41-0.51,0.83-0.89,1.28-1.14c0.45-0.25,0.87-0.38,1.27-0.38c0.42,0,0.75,0.11,1.01,0.33c0.25,0.22,0.38,0.46,0.38,0.71
		c0,0.2-0.07,0.37-0.2,0.51c-0.13,0.14-0.3,0.2-0.5,0.2c-0.18,0-0.32-0.05-0.43-0.15c-0.11-0.1-0.17-0.22-0.17-0.37
		c0-0.09,0.04-0.2,0.11-0.34s0.11-0.22,0.11-0.27c0-0.08-0.02-0.14-0.07-0.18c-0.07-0.06-0.17-0.09-0.3-0.09
		c-0.33,0-0.63,0.12-0.89,0.36c-0.35,0.31-0.67,0.8-0.95,1.47c-0.14,0.35-0.42,1.17-0.85,2.45H87.06z"/>
</g>
<g>
	<path fill="#C9D5A6" d="M6.83,10.1C4.77,5.1,7.47,1.62,12.83,2.37l73.83,10.4c5.36,0.76,7.02,4.86,3.69,9.13L44.85,80.23
		c-3.33,4.27-7.74,3.66-9.79-1.35L6.83,10.1z"/>
	<path fill="none" stroke="#FFFFFF" stroke-width="1.2625" d="M6.83,10.1C4.77,5.1,7.47,1.62,12.83,2.37l73.83,10.4
		c5.36,0.76,7.02,4.86,3.69,9.13L44.85,80.23c-3.33,4.27-7.74,3.66-9.79-1.35L6.83,10.1z"/>
</g>
<g>
	<g>
		<path fill="#B47020" d="M41.37,16.98c-0.54,3.45-3.06,5.95-5.63,5.59c-2.56-0.36-4.2-3.46-3.66-6.91
			c0.54-3.45,3.06-5.96,5.62-5.59C40.27,10.43,41.91,13.52,41.37,16.98z"/>
		<path fill="#B47020" d="M36.12,23.81c2.97-0.02,4.06-0.9,6.72-2.01c1.35-0.56,14.39-11.19,15.79-9.86
			c3.31,3.14-10.04,9.88-13.9,15.67c-3.04,4.56-0.69,11.56-0.15,15.06c1.02,6.58,0.01,21.67-0.58,21.83
			c-1.02,0.28-1.48-0.58-5.5-18.91c-1.23-5.63-2.34-1.96-2.49-1.81c-0.16,0.15-2.2,19.83-2.45,20.31c-0.08,0.16-0.69,0.29-0.78,0.15
			c-0.81-1.25-2.64-11.25-3.32-22.68c-0.44-7.34,1.43-10.14-1.31-12.99C23.5,23.73,9.4,14.75,13.62,12.93
			c0.91-0.39,13.9,9.01,15.11,9.42C33.35,23.94,36.12,23.81,36.12,23.81z"/>
	</g>
	<g>
		<path fill="#FFFFFF" d="M54.65,32.81c-0.35,2.2-1.97,3.8-3.61,3.57s-2.7-2.21-2.35-4.41c0.35-2.21,1.97-3.81,3.61-3.57
			C53.95,28.63,55,30.6,54.65,32.81z"/>
		<path fill="#FFFFFF" d="M51.28,37.17c1.91-0.01,2.6-0.57,4.32-1.29c0.87-0.36,9.25-7.15,10.14-6.3c2.13,2.01-6.44,6.31-8.93,10.01
			c-1.95,2.91-0.44,7.39-0.09,9.62c0.65,4.2,0,13.84-0.37,13.94c-0.66,0.18-0.95-0.37-3.53-12.08c-0.79-3.59-1.5-1.25-1.6-1.16
			c-0.1,0.1-1.42,12.66-1.57,12.97c-0.05,0.1-0.44,0.18-0.5,0.09c-0.52-0.8-1.7-7.18-2.13-14.49c-0.28-4.69,0.92-6.48-0.84-8.3
			c-2.99-3.09-12.05-8.82-9.33-9.99c0.58-0.25,8.93,5.75,9.7,6.02C49.5,37.26,51.28,37.17,51.28,37.17z"/>
	</g>
</g>
</svg>
